<svg xmlns="http://www.w3.org/2000/svg" viewBox="0 0 1280 720" role="img" aria-labelledby="t d"><title id="t">vibe-EPD enclosure reference dimensions</title><desc id="d">Front and rear dimensioned drawings for the 104 by 90 millimeter enclosure and 60 by 45 millimeter PCB.</desc><rect width="1280" height="720" fill="#0c1016"/><g font-family="system-ui, sans-serif" stroke-linecap="round" stroke-linejoin="round"><text x="70" y="70" fill="#e8ecf1" font-size="32" font-weight="700">Mechanical reference · enclosure v0.1</text><g transform="translate(105 145)"><rect width="520" height="450" rx="26" fill="none" stroke="#d5dbe2" stroke-width="3"/><rect x="45" y="62" width="430" height="325" fill="none" stroke="#8993a0" stroke-width="2"/><rect x="65" y="82" width="390" height="285" fill="#161c23" stroke="#596370"/><text x="188" y="230" fill="#aab2bd" font-size="20">screen window</text><path d="M0 485H520M0 470v30M520 470v30" stroke="#77818e"/><text x="226" y="515" fill="#dce2e8" font-size="18">104 mm</text><path d="M-45 0V450M-60 0h30M-60 450h30" stroke="#77818e"/><text x="-95" y="236" fill="#dce2e8" font-size="18" transform="rotate(-90 -95 236)">90 mm</text><text x="160" y="424" fill="#8993a0" font-size="16">front view</text></g><g transform="translate(755 165)"><rect width="390" height="300" rx="22" fill="none" stroke="#d5dbe2" stroke-width="3"/><rect x="82" y="75" width="225" height="169" fill="#1b4d3b" stroke="#73a38c" stroke-width="2"/><circle cx="95" cy="88" r="7" fill="none" stroke="#d5dbe2"/><circle cx="294" cy="88" r="7" fill="none" stroke="#d5dbe2"/><circle cx="95" cy="231" r="7" fill="none" stroke="#d5dbe2"/><circle cx="294" cy="231" r="7" fill="none" stroke="#d5dbe2"/><text x="145" y="157" fill="#d8dee6" font-size="18">PCB 60 × 45 mm</text><text x="129" y="187" fill="#8e98a5" font-size="15">M3 holes: 3.5 mm inset</text><text x="122" y="340" fill="#8993a0" font-size="16">rear / PCB fit reference</text></g><g transform="translate(735 535)"><rect width="440" height="95" rx="14" fill="#151b22" stroke="#3f4853"/><text x="22" y="31" fill="#dbe1e8" font-size="15">Panel outline reference: 91 × 77 × 1.2 mm</text><text x="22" y="56" fill="#dbe1e8" font-size="15">Active area reference: 84.8 × 63.6 mm</text><text x="22" y="79" fill="#8f98a4" font-size="13">Verify exact FPC exit and tolerances before final printing.</text></g></g></svg>