<svg xmlns="http://www.w3.org/2000/svg" viewBox="0 0 1280 780" role="img" aria-labelledby="t d"><title id="t">vibe-EPD reference product render</title><desc id="d">A front three-quarter technical illustration of the 4.2 inch E-Ink reference enclosure.</desc><defs><linearGradient id="case" x1="0" y1="0" x2="1" y2="1"><stop stop-color="#20242b"/><stop offset="1" stop-color="#0b0d11"/></linearGradient><linearGradient id="screen" x1="0" y1="0" x2="0" y2="1"><stop stop-color="#f5f2e8"/><stop offset="1" stop-color="#ddd9cc"/></linearGradient><filter id="shadow" x="-30%" y="-30%" width="160%" height="180%"><feDropShadow dx="0" dy="28" stdDeviation="26" flood-opacity=".30"/></filter></defs><rect width="1280" height="780" fill="#0b0e13"/><g transform="translate(260 105) skewY(-3)" filter="url(#shadow)"><rect x="0" y="0" width="760" height="560" rx="42" fill="url(#case)" stroke="#444b55" stroke-width="4"/><rect x="50" y="50" width="660" height="460" rx="16" fill="#151a20" stroke="#515863" stroke-width="3"/><rect x="78" y="78" width="604" height="404" rx="5" fill="url(#screen)"/><g fill="#171a1e" font-family="system-ui, sans-serif"><text x="122" y="154" font-size="34" font-weight="700">vibe-EPD</text><text x="122" y="194" font-size="18">OPEN HARDWARE / E-INK NODE</text><line x1="122" y1="225" x2="638" y2="225" stroke="#171a1e" stroke-width="2"/><text x="122" y="276" font-size="22">ESP32-S3  ·  Wi-Fi  ·  BLE</text><text x="122" y="317" font-size="22">24-pin EPD  ·  400×300 reference</text><text x="122" y="358" font-size="22">Open Gerber  ·  BOM  ·  CAD</text><rect x="122" y="398" width="150" height="42" rx="21" fill="#171a1e"/><text x="153" y="426" fill="#f5f2e8" font-size="17">PROTOTYPE</text><text x="512" y="430" font-size="17">v0.15 / enclosure v0.1</text></g><rect x="-5" y="230" width="10" height="92" rx="4" fill="#727985"/></g><g font-family="system-ui, sans-serif" fill="#d5d9df"><text x="78" y="90" font-size="18" letter-spacing="3">REFERENCE PRODUCT</text><text x="78" y="710" font-size="16" fill="#9299a4">104 × 90 × ~16.8 mm enclosure target · 4.2-inch panel class</text></g></svg>