<svg xmlns="http://www.w3.org/2000/svg" width="1200" height="700" viewBox="0 0 60 36"><rect x="0" y="0" width="60" height="36" fill="white"/><text x="30" y="2" text-anchor="middle" font-size="1.3">EPD-S3-Universal functional schematic</text><rect x="5" y="7" width="13" height="7" fill="none" stroke="black" stroke-width="0.15"/><text x="11.5" y="9.4" text-anchor="middle" font-size="0.9">5 V IN / native USB</text><text x="11.5" y="11.3" text-anchor="middle" font-size="0.65">J1: VBUS, D-, D+, GND</text><rect x="21" y="7" width="13" height="7" fill="none" stroke="black" stroke-width="0.15"/><text x="27.5" y="9.4" text-anchor="middle" font-size="0.9">3.3 V buck</text><text x="27.5" y="11.3" text-anchor="middle" font-size="0.65">SY8089A1 + 2.2uH</text><rect x="39" y="7" width="14" height="7" fill="none" stroke="black" stroke-width="0.15"/><text x="46" y="9.4" text-anchor="middle" font-size="0.9">ESP32-S3</text><text x="46" y="11.3" text-anchor="middle" font-size="0.65">N8R2 / optional N8R8</text><rect x="39" y="25" width="14" height="8" fill="none" stroke="black" stroke-width="0.15"/><text x="46" y="27.4" text-anchor="middle" font-size="0.9">24-pin EPD FPC</text><text x="46" y="29.3" text-anchor="middle" font-size="0.65">FH12-24S-0.5SH</text><rect x="20" y="25" width="15" height="8" fill="none" stroke="black" stroke-width="0.15"/><text x="27.5" y="27.4" text-anchor="middle" font-size="0.9">EPD HV pump</text><text x="27.5" y="29.3" text-anchor="middle" font-size="0.65">SI1308EDL + 3x MBR0530</text><rect x="5" y="25" width="12" height="8" fill="none" stroke="black" stroke-width="0.15"/><text x="11" y="27.4" text-anchor="middle" font-size="0.9">RESE select</text><text x="11" y="29.3" text-anchor="middle" font-size="0.65">0.47R / 2.2R, SJ1</text><line x1="18" y1="10.5" x2="21" y2="10.5" stroke="black" stroke-width="0.15"/><line x1="34" y1="10.5" x2="39" y2="10.5" stroke="black" stroke-width="0.15"/><line x1="46" y1="14" x2="46" y2="25" stroke="black" stroke-width="0.15"/><line x1="35" y1="29" x2="39" y2="29" stroke="black" stroke-width="0.15"/><line x1="17" y1="29" x2="20" y2="29" stroke="black" stroke-width="0.15"/></svg>